<?xml version="1.0" encoding="UTF-8"?>
<svg version="1.1" xmlns="http://www.w3.org/2000/svg" width="417" height="417">
<path d="M0 0 C1.24690361 -0.01469078 1.24690361 -0.01469078 2.51899719 -0.02967834 C62.50116966 -0.59050075 115.63165247 18.17107417 159.12890625 60.23828125 C159.92554688 60.98335937 160.7221875 61.7284375 161.54296875 62.49609375 C167.6087377 68.30465695 172.72772704 74.75235796 177.7734375 81.44287109 C178.64227654 82.59370724 179.51679094 83.74029355 180.3984375 84.88134766 C204.28347574 115.84659367 219.98350343 157.81069359 220.3671875 197.109375 C220.37698135 197.94064407 220.38677521 198.77191315 220.39686584 199.62837219 C220.95768825 259.61054466 202.19611333 312.74102747 160.12890625 356.23828125 C159.38382812 357.03492188 158.63875 357.8315625 157.87109375 358.65234375 C152.06253055 364.7181127 145.61482954 369.83710204 138.92431641 374.8828125 C137.77348026 375.75165154 136.62689395 376.62616594 135.48583984 377.5078125 C104.52059383 401.39285074 62.55649391 417.09287843 23.2578125 417.4765625 C22.42654343 417.48635635 21.59527435 417.49615021 20.73881531 417.50624084 C-39.24335716 418.06706325 -92.37383997 399.30548833 -135.87109375 357.23828125 C-136.66773438 356.49320312 -137.464375 355.748125 -138.28515625 354.98046875 C-144.3509252 349.17190555 -149.46991454 342.72420454 -154.515625 336.03369141 C-155.38446404 334.88285526 -156.25897844 333.73626895 -157.140625 332.59521484 C-181.02566324 301.62996883 -196.72569093 259.66586891 -197.109375 220.3671875 C-197.12406578 219.12028389 -197.12406578 219.12028389 -197.13905334 217.84819031 C-197.69987575 157.86601784 -178.93830083 104.73553503 -136.87109375 61.23828125 C-136.12601563 60.44164062 -135.3809375 59.645 -134.61328125 58.82421875 C-128.80471805 52.7584498 -122.35701704 47.63946046 -115.66650391 42.59375 C-114.51566776 41.72491096 -113.36908145 40.85039656 -112.22802734 39.96875 C-81.26278133 16.08371176 -39.29868141 0.38368407 0 0 Z " fill="#2C3748" transform="translate(196.87109375,-0.23828125)"/>
<path d="M0 0 C1.24690361 -0.01469078 1.24690361 -0.01469078 2.51899719 -0.02967834 C62.50116966 -0.59050075 115.63165247 18.17107417 159.12890625 60.23828125 C159.92554688 60.98335937 160.7221875 61.7284375 161.54296875 62.49609375 C167.6087377 68.30465695 172.72772704 74.75235796 177.7734375 81.44287109 C178.64227654 82.59370724 179.51679094 83.74029355 180.3984375 84.88134766 C204.28347574 115.84659367 219.98350343 157.81069359 220.3671875 197.109375 C220.37698135 197.94064407 220.38677521 198.77191315 220.39686584 199.62837219 C220.95768825 259.61054466 202.19611333 312.74102747 160.12890625 356.23828125 C159.38382812 357.03492188 158.63875 357.8315625 157.87109375 358.65234375 C152.06253055 364.7181127 145.61482954 369.83710204 138.92431641 374.8828125 C137.77348026 375.75165154 136.62689395 376.62616594 135.48583984 377.5078125 C104.52059383 401.39285074 62.55649391 417.09287843 23.2578125 417.4765625 C22.42654343 417.48635635 21.59527435 417.49615021 20.73881531 417.50624084 C-39.24335716 418.06706325 -92.37383997 399.30548833 -135.87109375 357.23828125 C-136.66773438 356.49320312 -137.464375 355.748125 -138.28515625 354.98046875 C-144.3509252 349.17190555 -149.46991454 342.72420454 -154.515625 336.03369141 C-155.38446404 334.88285526 -156.25897844 333.73626895 -157.140625 332.59521484 C-181.02566324 301.62996883 -196.72569093 259.66586891 -197.109375 220.3671875 C-197.12406578 219.12028389 -197.12406578 219.12028389 -197.13905334 217.84819031 C-197.69987575 157.86601784 -178.93830083 104.73553503 -136.87109375 61.23828125 C-136.12601563 60.44164062 -135.3809375 59.645 -134.61328125 58.82421875 C-128.80471805 52.7584498 -122.35701704 47.63946046 -115.66650391 42.59375 C-114.51566776 41.72491096 -113.36908145 40.85039656 -112.22802734 39.96875 C-81.26278133 16.08371176 -39.29868141 0.38368407 0 0 Z M-125.87109375 68.23828125 C-126.7940625 69.1096875 -127.71703125 69.98109375 -128.66796875 70.87890625 C-162.93282463 103.9822416 -184.10521652 152.38104488 -185.109375 199.95703125 C-185.15324346 202.88414821 -185.17399759 205.81086175 -185.18359375 208.73828125 C-185.18621216 209.50473969 -185.18883057 210.27119812 -185.19152832 211.06088257 C-185.19846915 230.1493948 -183.13055964 249.11356197 -176.87109375 267.23828125 C-176.61908203 268.00962402 -176.36707031 268.7809668 -176.10742188 269.57568359 C-164.85843393 303.90068433 -144.47419259 337.50248473 -115.87109375 360.23828125 C-114.91976562 361.00398438 -113.9684375 361.7696875 -112.98828125 362.55859375 C-89.71970135 381.03174193 -63.47480029 394.1180041 -34.74609375 401.55078125 C-33.81740479 401.7936084 -32.88871582 402.03643555 -31.93188477 402.28662109 C-17.03872494 405.93218798 -2.01213574 406.65034702 13.25390625 406.61328125 C14.10441559 406.61273743 14.95492493 406.6121936 15.83120728 406.6116333 C29.5955776 406.57132957 42.74597384 405.68906092 56.12890625 402.23828125 C56.97324219 402.02397461 57.81757813 401.80966797 58.6875 401.58886719 C108.94137579 388.45172386 154.50461794 357.06017929 181.02270508 311.83154297 C187.73514344 300.0399691 193.32230746 287.91676487 198.12890625 275.23828125 C198.49757813 274.31917969 198.86625 273.40007812 199.24609375 272.453125 C208.20890334 249.42078874 209.72684436 224.67708497 209.12890625 200.23828125 C205.74180471 201.86512859 202.98200388 203.81241865 200.00390625 206.11328125 C194.92810603 209.85405791 190.07215035 212.22899944 184.12890625 214.23828125 C182.67484375 214.85703125 182.67484375 214.85703125 181.19140625 215.48828125 C175.61622548 216.85363164 169.48969384 217.66573421 164.44140625 214.61328125 C162.74775142 211.54857251 162.61480563 209.69009968 163.12890625 206.23828125 C164.90342873 203.70059001 166.09585588 203.24679097 169.1328125 202.46484375 C170.30714844 202.26632813 171.48148437 202.0678125 172.69140625 201.86328125 C185.76322114 199.24084925 195.05599434 193.03129544 203.00390625 182.30078125 C208.66671989 173.65546483 210.2945397 165.57527237 209.12890625 155.23828125 C208.1781584 151.96673354 206.85234557 149.16872859 205.12890625 146.23828125 C204.57203125 145.26890625 204.01515625 144.29953125 203.44140625 143.30078125 C192.48272241 128.78792967 181.71256383 123.78210989 164.12890625 121.23828125 C163.87830435 119.82524887 163.65428704 118.40748651 163.44140625 116.98828125 C163.24998047 115.80492188 163.24998047 115.80492188 163.0546875 114.59765625 C163.12890625 112.23828125 163.12890625 112.23828125 164.16015625 109.98828125 C167.06227032 107.4086243 169.49537535 107.62850257 173.31640625 107.48828125 C174.58871094 107.4315625 175.86101562 107.37484375 177.171875 107.31640625 C178.14769531 107.290625 179.12351562 107.26484375 180.12890625 107.23828125 C178.64832148 102.97863096 176.43807973 99.492617 173.81640625 95.86328125 C173.38126709 95.25895264 172.94612793 94.65462402 172.49780273 94.03198242 C140.87146779 50.89306264 95.04948267 23.57345429 42.75390625 13.98828125 C-19.31457547 4.72171919 -80.90363208 24.7781088 -125.87109375 68.23828125 Z " fill="#1F725A" transform="translate(196.87109375,-0.23828125)"/>
<path d="M0 0 C11.18327269 7.60462543 18.73086664 18.12394503 21.89453125 31.23828125 C22.16001487 34.05777164 22.17510032 36.84559466 22.14453125 39.67578125 C22.15613281 40.7440918 22.15613281 40.7440918 22.16796875 41.83398438 C22.12206279 54.46959987 16.83077443 66.03063645 8.18359375 75.1953125 C3.42514346 79.44218878 -2.03018342 83.21318614 -8.10546875 85.23828125 C-8.43546875 113.94828125 -8.76546875 142.65828125 -9.10546875 172.23828125 C-6.13546875 170.58828125 -3.16546875 168.93828125 -0.10546875 167.23828125 C6.43124799 165.94623841 13.0600556 167.04534842 18.89453125 170.23828125 C24.76314381 174.30116687 28.46249587 179.15916298 29.89453125 186.23828125 C30.79059117 193.92089335 29.10137991 200.14240524 24.31640625 206.25390625 C18.98780116 211.96655495 13.79865249 214.35408121 5.95703125 214.73828125 C0.08516891 214.6201054 -3.61673733 212.9348836 -8.10546875 209.23828125 C-8.2034375 209.96273437 -8.30140625 210.6871875 -8.40234375 211.43359375 C-9.2947157 217.20323995 -10.01446387 221.8243023 -14.10546875 226.23828125 C-18.35601824 229.25144856 -22.82756347 231.05077485 -28.0859375 230.75 C-32.14762955 229.72082851 -35.36024432 227.34872401 -38.10546875 224.23828125 C-41.17689684 218.60732975 -41.62411134 213.64499542 -41.79296875 207.30078125 C-41.82712891 206.42615234 -41.86128906 205.55152344 -41.89648438 204.65039062 C-41.97822532 202.51344871 -42.04354005 200.37588907 -42.10546875 198.23828125 C-42.5334375 199.15222656 -42.96140625 200.06617188 -43.40234375 201.0078125 C-46.25765616 206.42373764 -50.08242155 210.0085859 -55.29296875 213.17578125 C-62.74766224 215.25331878 -69.54030197 215.5691976 -76.48046875 211.80078125 C-82.00825303 208.07108461 -85.16676013 203.11569849 -88.10546875 197.23828125 C-88.83824784 189.94189515 -88.85420005 183.53502155 -84.8046875 177.24609375 C-80.43057531 172.07760256 -75.19550235 167.69145468 -68.3203125 166.9296875 C-61.26695101 166.65226089 -56.46425582 167.35839558 -50.421875 171.046875 C-48.10546875 173.23828125 -48.10546875 173.23828125 -42.10546875 182.23828125 C-41.77546875 150.22828125 -41.44546875 118.21828125 -41.10546875 85.23828125 C-44.07546875 84.24828125 -44.07546875 84.24828125 -47.10546875 83.23828125 C-59.00487903 76.50522935 -66.76158326 66.8696134 -71.21484375 54.04296875 C-74.18116632 41.3710469 -73.13495717 27.90307347 -66.59765625 16.640625 C-51.67174508 -6.37304733 -23.79463299 -13.49859054 0 0 Z " fill="#09D67A" transform="translate(234.10546875,73.76171875)"/>
<path d="M0 0 C3.17818605 2.58551732 5.43434778 5.03501886 6.17914581 9.13257504 C6.18140797 10.65152292 6.18140797 10.65152292 6.18371582 12.20115662 C6.20063477 13.95281128 6.20063477 13.95281128 6.21789551 15.73985291 C6.20979858 17.01220291 6.20170166 18.28455292 6.19335938 19.59545898 C6.19878261 20.95590971 6.20590641 22.31635457 6.21459961 23.67678833 C6.23281414 27.36494087 6.22577303 31.05264515 6.21308327 34.74080539 C6.2029437 38.6044018 6.21235179 42.46796028 6.21862793 46.33155823 C6.22590245 52.820474 6.21632279 59.3092076 6.19726562 65.7980957 C6.17550628 73.29348058 6.18254197 80.78843006 6.20457125 88.28380436 C6.22274188 94.7247478 6.22527521 101.16556039 6.21481657 107.60652119 C6.20858954 111.45091799 6.20772386 115.29511038 6.22096252 119.13949394 C6.23254447 122.75530297 6.22445337 126.37055263 6.2013855 129.98630142 C6.19360013 131.94125354 6.205435 133.89625313 6.21789551 135.85118103 C6.11473695 146.55719705 6.11473695 146.55719705 1.67578125 151.36328125 C-2.34927968 154.52582912 -7.18271751 156.14349376 -12.30078125 155.890625 C-17.49869676 154.5359559 -21.42337509 150.71454674 -24.32421875 146.36328125 C-24.58707428 143.82725906 -24.58707428 143.82725906 -24.60510254 140.73468018 C-24.61652283 139.56269073 -24.62794312 138.39070129 -24.63970947 137.18319702 C-24.64194519 135.89587677 -24.64418091 134.60855652 -24.64648438 133.28222656 C-24.65574237 131.91384344 -24.66579192 130.54546547 -24.67657471 129.17709351 C-24.70281432 125.45791346 -24.71571126 121.73880561 -24.72459602 118.01954746 C-24.73045985 115.69493452 -24.73866998 113.37034125 -24.74760437 111.04573822 C-24.77495424 103.76978944 -24.79428661 96.4938857 -24.80200815 89.21788907 C-24.81096517 80.82413039 -24.84603986 72.43102383 -24.90400934 64.03746343 C-24.9472794 57.54646325 -24.96741866 51.05564627 -24.97009039 44.56450343 C-24.97218428 40.68912228 -24.98394918 36.81435411 -25.01972961 32.93912506 C-25.05275546 29.2912107 -25.05697364 25.6443678 -25.0394516 21.99635696 C-25.03718314 20.02598514 -25.06457264 18.05564841 -25.09295654 16.08547974 C-25.03104421 9.50827435 -24.69596897 5.2979909 -19.89852142 0.55683517 C-13.70047622 -4.14219844 -6.4448407 -3.73769998 0 0 Z " fill="#00FE87" transform="translate(218.32421875,148.63671875)"/>
<path d="M0 0 C4.50454825 3.77124245 8.80193876 7.6606597 12.93359375 11.8359375 C13.4563942 12.36015289 13.97919464 12.88436829 14.51783752 13.42446899 C16.16012345 15.0722787 17.7988665 16.72355901 19.4375 18.375 C20.56161467 19.50413955 21.68596174 20.63304778 22.81054688 21.76171875 C25.54305235 24.50515188 28.27239009 27.25169985 31 30 C34.8363467 28.43970513 37.08501969 26.03296818 39.88671875 23.02734375 C40.83435568 22.03491768 41.78295452 21.04340939 42.73242188 20.05273438 C44.21215176 18.49900574 45.68476908 16.9404538 47.14135742 15.36499023 C56.31937493 5.47559483 56.31937493 5.47559483 61.99609375 4.74609375 C65.95487921 4.70519626 68.74613035 5.67580739 72 8 C74.83052803 11.30228271 75.71792053 14.53554147 75.5393219 18.9119873 C74.86778839 21.51186412 73.8074294 22.74694025 71.99584961 24.72070312 C71.35912323 25.41663574 70.72239685 26.11256836 70.06637573 26.82958984 C66.57801221 30.49357965 63.03091333 34.09140125 59.44140625 37.65625 C58.65225327 38.44398804 57.86310028 39.23172607 57.05003357 40.04333496 C54.55654988 42.53127102 52.05959216 45.01568624 49.5625 47.5 C47.85979413 49.1976841 46.15731793 50.89559858 44.45507812 52.59375 C40.30603588 56.7318328 36.15414424 60.86703935 32 65 C27.49545175 61.22875755 23.19806124 57.3393403 19.06640625 53.1640625 C18.5436058 52.63984711 18.02080536 52.11563171 17.48216248 51.57553101 C15.83987655 49.9277213 14.2011335 48.27644099 12.5625 46.625 C11.43838533 45.49586045 10.31403826 44.36695222 9.18945312 43.23828125 C6.45694765 40.49484812 3.72760991 37.74830015 1 35 C-2.84447108 36.57585914 -5.2190576 39.01829808 -8.09765625 41.97265625 C-8.81096352 42.69732338 -8.81096352 42.69732338 -9.53868103 43.43663025 C-11.05154902 44.97384499 -12.55776579 46.517325 -14.0625 48.0625 C-16.04763132 50.10079601 -18.03925818 52.13240817 -20.03515625 54.16015625 C-20.9156665 55.06386963 -21.79617676 55.96758301 -22.70336914 56.89868164 C-25.60015915 59.54911978 -27.42589305 59.94583897 -31.3125 60.3125 C-35.7020258 59.94050629 -37.64776343 58.80652364 -41 56 C-43.58644464 52.5905957 -43.36503115 49.1613551 -43 45 C-41.12345335 41.36496243 -38.8786512 38.63336002 -35.98754883 35.76049805 C-35.18694534 34.96004562 -34.38634186 34.1595932 -33.56147766 33.33488464 C-32.70201035 32.4857399 -31.84254303 31.63659515 -30.95703125 30.76171875 C-29.63163582 29.44056816 -29.63163582 29.44056816 -28.27946472 28.09272766 C-25.94038259 25.76292417 -23.59703962 23.43752174 -21.25152588 21.11419678 C-18.85479275 18.73799807 -16.46377877 16.35605961 -14.07226562 13.97460938 C-9.38674541 9.31111671 -4.69555889 4.65338364 0 0 Z " fill="#0EC174" transform="translate(114,287)"/>
<path d="M0 0 C12.62321097 2.76929123 20.97848064 9.44651981 28.2421875 19.98828125 C33.37930321 28.18349173 35.23171727 37.02091698 33.90234375 46.63671875 C29.92917223 57.73252703 23.26022008 67.68093986 12.90234375 73.63671875 C14.38734375 74.62671875 14.38734375 74.62671875 15.90234375 75.63671875 C21.73036923 81.1872192 21.73036923 81.1872192 22.33984375 86.32421875 C22.26094482 90.64788016 20.73893393 92.98069855 18.09375 96.2890625 C14.56032718 98.46202306 11.00838269 98.76363963 6.90234375 98.63671875 C4.11602105 97.95552696 1.66557322 96.82049881 -0.91015625 95.57421875 C-15.90147464 88.95216396 -30.44432409 85.14938615 -46.78515625 83.57324219 C-47.79449219 83.4755957 -48.80382812 83.37794922 -49.84375 83.27734375 C-50.73763428 83.20032227 -51.63151855 83.12330078 -52.55249023 83.04394531 C-56.8284786 82.35978717 -59.43124906 81.37717118 -62.34765625 78.13671875 C-64.99906849 74.34898698 -65.54539735 72.29322616 -65.09765625 67.63671875 C-62.96653035 63.67891351 -61.35250087 61.15780818 -57.09765625 59.63671875 C-54.32197764 59.41292058 -51.68443195 59.30477496 -48.91015625 59.32421875 C-47.72280884 59.32832764 -47.72280884 59.32832764 -46.51147461 59.33251953 C-37.20789737 59.49313293 -28.07974657 61.0792056 -19.08203125 63.421875 C-10.26386794 65.57484762 -2.14474562 63.61192058 5.65234375 59.015625 C11.18701021 54.92834664 15.50686717 50.56241735 16.90234375 43.63671875 C17.60054484 36.37274202 16.20284005 31.21526855 12.21484375 25.01171875 C7.43572774 20.10343745 2.96529375 17.60999732 -3.84765625 16.63671875 C-7.57125363 16.07895382 -8.82257777 15.86701701 -11.78515625 13.38671875 C-13.37771953 10.04991949 -13.78179111 8.28543799 -13.09765625 4.63671875 C-9.60695194 -1.02062962 -6.04140448 -0.88391019 0 0 Z " fill="#09D47A" transform="translate(309.09765625,138.36328125)"/>
<path d="M0 0 C4.47150362 1.01367804 8.73643647 2.31537246 13 4 C13.66241699 4.23001709 14.32483398 4.46003418 15.00732422 4.69702148 C19.30318105 6.43229123 21.46288444 8.1281028 23.5390625 12.31640625 C24.26499278 14.05261738 24.95888912 15.80247154 25.625 17.5625 C26.18719238 18.96870605 26.18719238 18.96870605 26.76074219 20.40332031 C27.88067555 23.25554545 28.94985175 26.1214236 30 29 C30.29680664 29.8048584 30.59361328 30.6097168 30.89941406 31.43896484 C42.92297396 64.74862634 42.92297396 64.74862634 41 79 C32.83012508 94.07950318 19.07665919 103.94888749 3 109 C1.515 109.495 1.515 109.495 0 110 C-5.38862498 110.58390673 -9.58285842 110.94476105 -14.1875 107.875 C-16.32320201 104.48733474 -16.75187617 102.92646445 -16 99 C-12.91768479 95.01898566 -10.24910345 94.34603104 -5.375 93.5625 C7.19627316 91.12388166 16.18736078 85.4141523 23.8125 75.125 C29.52235437 66.45592887 31.1711779 58.38616005 30 48 C29.04931256 44.72866014 27.72523634 41.92930754 26 39 C25.4225 38.01 24.845 37.02 24.25 36 C23.5075 35.01 22.765 34.02 22 33 C21.46890625 32.2884375 20.9378125 31.576875 20.390625 30.84375 C12.59670563 21.18186649 3.06393045 17.70588108 -8.96875 15.8359375 C-12.43473232 14.88011248 -13.8155854 13.81978519 -16 11 C-16.61348186 7.39579407 -16.2046055 5.47059264 -14.75 2.125 C-10.18916144 -1.39928434 -5.54121947 -0.70150165 0 0 Z " fill="#10B770" transform="translate(375,107)"/>
<path d="M0 0 C0.92997803 -0.02698975 1.85995605 -0.05397949 2.81811523 -0.08178711 C7.41806797 -0.05505553 9.41152382 0.05084102 13.12890625 2.97265625 C16.06641565 6.90713853 16.46079504 9.4053459 16.4140625 14.234375 C15.81076043 18.22957536 14.023798 19.8704109 11.0625 22.5625 C8.38907882 23.44592686 5.79982688 23.7321671 3 23.921875 C-15.44970845 25.35198244 -34.92297487 28.97523783 -51.375 37.875 C-55.90814113 40.02227738 -59.30570783 40.31444062 -64.125 38.9375 C-67.35793766 36.4849266 -69.56900046 33.63176667 -70.29296875 29.56640625 C-70.4755783 24.96638473 -69.65034627 22.19690764 -66.9375 18.5625 C-48.39829248 6.00011162 -22.04490909 0.39186899 0 0 Z " fill="#09D47A" transform="translate(156.9375,197.4375)"/>
<path d="M0 0 C6.49535505 3.57343241 11.46991068 8.78256052 13.765625 15.953125 C14.94120014 22.43129437 14.7837577 28.31391486 11.4609375 34.09375 C7.42939354 39.80905643 2.99217032 44.06493819 -3.8671875 45.9765625 C-11.51032023 47.03750727 -17.22372939 46.25038931 -23.66796875 41.90234375 C-28.10841101 38.0139991 -32.53724739 32.26182333 -33.140625 26.25390625 C-33.37346337 18.59710601 -32.92674965 12.95498766 -27.8671875 6.9765625 C-19.79590748 -0.51516852 -10.94102643 -3.90538001 0 0 Z " fill="#12AD6E" transform="translate(178.8671875,242.0234375)"/>
<path d="M0 0 C6.74681746 2.96639213 10.51664468 7.35335028 13.6875 13.8125 C15.77760121 20.77950404 15.24521454 27.16720875 12.015625 33.671875 C8.29945817 39.66146153 3.54518958 43.90134061 -3.3125 45.8125 C-10.57526171 46.70529806 -15.88489043 46.36548335 -21.88671875 42.00390625 C-23.3125 40.8125 -23.3125 40.8125 -24.3125 39.8125 C-24.40105161 37.1462397 -24.42774673 34.50602886 -24.41015625 31.83984375 C-24.4087413 31.04220108 -24.40732635 30.24455841 -24.40586853 29.42274475 C-24.40025316 26.86512565 -24.38769812 24.30759282 -24.375 21.75 C-24.36998698 20.02018355 -24.36542373 18.29036574 -24.36132812 16.56054688 C-24.35027875 12.31116447 -24.33300386 8.06184688 -24.3125 3.8125 C-16.04053801 -1.20785088 -9.50908939 -3.13945127 0 0 Z " fill="#12AD6E" transform="translate(249.3125,242.1875)"/>
<path d="M0 0 C12.62321097 2.76929123 20.97848064 9.44651981 28.2421875 19.98828125 C33.37930321 28.18349173 35.23171727 37.02091698 33.90234375 46.63671875 C30.71440357 55.53962487 25.86787679 63.21010509 18.90234375 69.63671875 C18.28746094 70.24128906 17.67257812 70.84585938 17.0390625 71.46875 C14.93723201 73.18763829 13.56542853 74.07000694 10.90234375 74.63671875 C6.57896145 73.60078366 2.84814913 71.64494195 -1.09765625 69.63671875 C-3.00563797 68.84463234 -4.92174962 68.07166693 -6.84765625 67.32421875 C-7.6675 66.99808594 -8.48734375 66.67195313 -9.33203125 66.3359375 C-9.9146875 66.10519531 -10.49734375 65.87445313 -11.09765625 65.63671875 C-8.58578503 63.12484753 -6.99654138 63.10789868 -3.53515625 62.44921875 C4.07798153 60.63961337 9.84199946 56.86627464 14.40234375 50.44921875 C17.1367954 45.32212191 17.44544864 40.36841497 16.90234375 34.63671875 C14.46957097 27.33840042 10.77600235 22.63754751 4.2578125 18.6875 C1.54396906 17.47684679 -0.9104378 17.05632139 -3.84765625 16.63671875 C-7.57125363 16.07895382 -8.82257777 15.86701701 -11.78515625 13.38671875 C-13.37771953 10.04991949 -13.78179111 8.28543799 -13.09765625 4.63671875 C-9.60695194 -1.02062962 -6.04140448 -0.88391019 0 0 Z " fill="#169967" transform="translate(309.09765625,138.36328125)"/>
<path d="M0 0 C4.50806687 4.50806687 4.22603814 13.56299709 4.26123047 19.66943359 C3.85658834 23.27944643 2.45327537 24.95950405 -0.1875 27.375 C-3.01171875 29.3125 -3.01171875 29.3125 -6 31 C-6.91394531 31.5775 -7.82789063 32.155 -8.76953125 32.75 C-17.6228382 38.01892087 -27.56526868 41.77826611 -38 40 C-41.1875 37.875 -41.1875 37.875 -43 35 C-43.5625 31.9375 -43.5625 31.9375 -43 29 C-39.91768479 25.01898566 -37.24910345 24.34603104 -32.375 23.5625 C-19.53407432 21.07157355 -10.53247992 15.24986631 -3 4.5625 C-1.98932329 3.0487409 -0.98534729 1.53036752 0 0 Z " fill="#169967" transform="translate(402,177)"/>
<path d="M0 0 C1.67225729 0.30404678 3.34166789 0.62740973 5 1 C5.25523437 1.84046875 5.51046875 2.6809375 5.7734375 3.546875 C7.10148815 7.28571823 8.79586567 10.74044145 10.625 14.25 C14 20.73214286 14 20.73214286 14 23 C11.55461016 22.03221321 9.12108506 21.05289723 6.7109375 20 C2.17818179 18.05955608 -1.98806403 16.73173373 -6.875 16 C-10.16962037 15.45943994 -11.85182481 15.09648617 -14.6875 13.25 C-16.46666277 10.20000667 -16.56831137 8.48090713 -16 5 C-12.98065886 -1.94448462 -6.51467318 -0.5992472 0 0 Z " fill="#169967" transform="translate(375,107)"/>
<path d="M0 0 C5.3364639 3.93881859 8.6574843 8.29143386 12 14 C12.41765625 14.70125 12.8353125 15.4025 13.265625 16.125 C17.15723742 23.57935618 17.2508721 32.27134096 15 40.3125 C14.67 41.199375 14.34 42.08625 14 43 C12.40461198 40.05947258 11.45737352 37.28190658 10.66796875 34.03515625 C10.42908936 33.07577148 10.19020996 32.11638672 9.9440918 31.12792969 C9.56957886 29.61054199 9.56957886 29.61054199 9.1875 28.0625 C6.99913682 19.4064582 4.46791832 11.23457895 1 3 C0.67 2.01 0.34 1.02 0 0 Z " fill="#1E745B" transform="translate(390,132)"/>
<path d="M0 0 C4.0873676 0.28928857 7.44204483 1.54171896 11.171875 3.1171875 C12.17927734 3.52130859 12.17927734 3.52130859 13.20703125 3.93359375 C16.06287112 5.10683458 18.21821727 6.03852977 20.421875 8.2421875 C14.15204379 11.63455994 8.58577626 13.45281193 1.421875 12.2421875 C-1.703125 10.6796875 -1.703125 10.6796875 -3.578125 8.2421875 C-3.953125 4.5546875 -3.953125 4.5546875 -3.578125 1.2421875 C-2.578125 0.2421875 -2.578125 0.2421875 0 0 Z " fill="#04E880" transform="translate(299.578125,204.7578125)"/>
</svg>
